<svg width="50" height="30" viewBox="0 0 50 30" fill="none" xmlns="http://www.w3.org/2000/svg">
<path d="M34.6669 0.715943C30.8993 0.716943 27.4651 2.13494 24.8768 4.46394C22.2866 2.13794 18.8544 0.718943 15.0908 0.718943C15.0596 0.718943 15.0274 0.718943 14.9972 0.718943C6.98266 0.770943 0.492889 7.24494 0.492889 15.2139C0.492889 23.2149 7.03301 29.7079 15.0898 29.7079C18.8534 29.7079 22.2856 28.2909 24.8748 25.9629C24.334 25.4779 23.8446 24.9409 23.3823 24.3789H26.3966C25.9424 24.9319 25.4469 25.4499 24.9141 25.9319H24.9121C24.9 25.9449 24.8869 25.9529 24.8748 25.9639C27.4661 28.2939 30.9023 29.7139 34.6719 29.7129C42.7338 29.7099 49.2669 23.2179 49.2648 15.2139C49.2648 15.2109 49.2648 15.2089 49.2648 15.2069C49.2658 7.20294 42.7287 0.713943 34.6669 0.715943ZM23.5495 5.96094H26.3241C26.7329 6.45294 27.1126 6.97094 27.457 7.51294H22.5071C22.8264 6.99494 23.1769 6.46194 23.5495 5.96094ZM21.6451 9.03494H28.299C28.5357 9.53694 28.7451 10.0559 28.9284 10.5879H20.8565C20.9371 10.4379 21.2191 9.83394 21.6451 9.03494ZM6.45191 18.9059L7.33716 13.3639L5.34007 18.9059H4.26952L4.13054 13.3639L3.18487 18.9059H1.6853L2.92806 11.5559H5.19606L5.27562 16.0659L6.80742 11.5559H9.26777L8.04213 18.9059H6.45191ZM11.7543 18.8939L11.8057 18.3069C11.7815 18.3099 11.3082 19.0159 10.2114 19.0159C9.63738 19.0159 8.71084 18.7049 8.71084 17.3529C8.71084 15.6339 10.1228 15.0639 11.4673 15.0639C11.6788 15.0639 12.135 15.1019 12.135 15.1019C12.135 15.1019 12.1864 14.9969 12.1864 14.7129C12.1864 14.2459 11.7634 14.1819 11.1843 14.1819C10.1641 14.1819 9.49034 14.4529 9.49034 14.4529L9.71593 13.1229C9.71593 13.1229 10.5337 12.7829 11.5982 12.7829C12.1491 12.7829 13.7333 12.8409 13.7333 14.6439L13.123 18.8939H11.7543ZM17.5381 17.0219C17.5381 19.0729 15.537 18.9849 15.1875 18.9849C13.8833 18.9849 13.4805 18.8059 13.4432 18.7959L13.6507 17.4459C13.6527 17.4339 14.3053 17.6809 15.0314 17.6809C15.4504 17.6809 15.9942 17.6399 15.9942 17.1429C15.9942 16.3989 14.0485 16.5769 14.0485 14.8099C14.0485 13.2509 15.2147 12.7949 16.3648 12.7949C17.2531 12.7949 17.7989 12.9159 17.7989 12.9159L17.6026 14.2779C17.6026 14.2779 16.7596 14.2089 16.5411 14.2089C15.9882 14.2089 15.687 14.3289 15.687 14.7129C15.686 15.4849 17.5381 15.1069 17.5381 17.0219ZM19.941 17.5599C20.079 17.5599 20.2351 17.5129 20.3419 17.5129L20.1475 18.8239C19.9914 18.8669 19.5493 19.0229 18.9823 19.0269C18.2582 19.0329 17.7435 18.6309 17.7435 17.7189C17.7435 17.1069 18.6268 12.0639 18.661 12.0309H20.215L20.0569 12.9329H20.8323L20.6339 14.3859H19.8111L19.374 17.0629C19.3408 17.2759 19.4002 17.5599 19.941 17.5599ZM23.3591 12.7629C25.0652 12.7629 25.5758 14.0029 25.5758 15.0199C25.5758 15.4269 25.3703 16.4269 25.3703 16.4269H22.2121C22.2121 16.4269 21.92 17.6619 23.5888 17.6619C24.3713 17.6619 25.2394 17.2819 25.2394 17.2819L24.9655 18.7689C24.9655 18.7689 24.4639 19.0229 23.3239 19.0229C22.0882 19.0229 20.639 18.5039 20.639 16.3239C20.64 14.4349 21.7961 12.7629 23.3591 12.7629ZM27.4752 22.8859H22.2967C21.9814 22.3859 21.6874 21.8729 21.4346 21.3339H28.3262C28.0724 21.8699 27.7884 22.3879 27.4752 22.8859ZM27.1277 18.9169H25.5325L26.5023 12.9349H27.9495L27.8105 13.8019C27.8105 13.8019 28.3262 12.8589 29.0221 12.8589C29.2245 12.8589 29.3222 12.8789 29.3222 12.8789C29.1157 13.2969 28.9335 13.6799 28.7441 14.6689C27.6645 14.2889 27.5819 16.3619 27.1277 18.9169ZM33.2056 18.8239C33.2056 18.8239 32.3697 19.0359 31.846 19.0359C29.9909 19.0359 29.0493 17.7649 29.0493 15.8399C29.0493 12.9369 30.7946 11.3909 32.5882 11.3909C33.3989 11.3909 34.3386 11.7689 34.3386 11.7689L34.0848 13.4039C34.0848 13.4039 33.4493 12.9629 32.6587 12.9629C31.6013 12.9629 30.6526 13.9649 30.6526 15.7859C30.6526 16.6829 31.0947 17.5189 32.1985 17.5189C32.7232 17.5189 33.4835 17.1399 33.4835 17.1399L33.2056 18.8239ZM36.947 18.8969L36.9993 18.3059C36.9742 18.3089 36.5008 19.0149 35.4051 19.0149C34.831 19.0149 33.9045 18.7039 33.9045 17.3519C33.9045 15.6329 35.3165 15.0629 36.6599 15.0629C36.8714 15.0629 37.3287 15.1009 37.3287 15.1009C37.3287 15.1009 37.381 14.9969 37.381 14.7129C37.381 14.2459 36.958 14.1819 36.378 14.1819C35.3578 14.1819 34.685 14.4529 34.685 14.4529L34.9106 13.1229C34.9106 13.1229 35.7284 12.7829 36.7939 12.7829C37.3438 12.7829 38.9289 12.8409 38.9279 14.6439L38.3176 18.8939C38.3166 18.8969 36.947 18.8969 36.947 18.8969ZM40.1767 18.9169H38.5815L39.5513 12.9349H40.9995L40.8606 13.8019C40.8606 13.8019 41.3772 12.8589 42.0731 12.8589C42.2755 12.8589 42.3722 12.8789 42.3722 12.8789C42.1668 13.2969 41.9825 13.6799 41.7942 14.6689C40.7135 14.2889 40.6309 16.3619 40.1767 18.9169ZM44.9393 18.9009L45.0068 18.3499C45.0068 18.3499 44.4912 18.9959 43.5586 18.9959C42.2665 18.9959 41.633 17.7569 41.633 16.4909C41.633 14.5329 42.8194 12.8259 44.2434 12.8259C45.1599 12.8279 45.745 13.6309 45.745 13.6309L46.0814 11.5659L47.6394 11.5629L46.451 18.9009H44.9393ZM48.013 18.6939C47.9717 18.7679 47.9133 18.8249 47.8388 18.8689C47.7653 18.9099 47.6867 18.9309 47.6041 18.9309C47.5236 18.9309 47.446 18.9099 47.3715 18.8689C47.297 18.8249 47.2385 18.7679 47.1973 18.6939C47.155 18.6189 47.1348 18.5429 47.1348 18.4619C47.1348 18.3799 47.156 18.3019 47.1973 18.2279C47.2385 18.1539 47.3 18.0939 47.3735 18.0539C47.45 18.0129 47.5256 17.9919 47.6041 17.9919C47.6847 17.9919 47.7612 18.0129 47.8358 18.0539C47.9123 18.0949 47.9707 18.1519 48.013 18.2279C48.0563 18.3029 48.0755 18.3809 48.0755 18.4619C48.0755 18.5429 48.0553 18.6199 48.013 18.6939Z" fill="#E9ECE0"/>
</svg>
